<?xml version="1.0" encoding="utf-8"?>
<!-- Generator: Adobe Illustrator 21.0.2, SVG Export Plug-In . SVG Version: 6.00 Build 0)  -->
<svg version="1.1" id="Layer_1" xmlns="http://www.w3.org/2000/svg" xmlns:xlink="http://www.w3.org/1999/xlink" x="0px" y="0px"
	 viewBox="0 0 900 116" style="enable-background:new 0 0 900 116;" xml:space="preserve">
<style type="text/css">
	.st0{fill:#FFFFFF;}
</style>
<g>
	<g>
		<path class="st0" d="M38.1,99.6c-21.4,0-33.2-7.1-35.8-21.7L2,76.4l5.2-1.1l0.3,1.6c2.1,11.8,12.1,17.5,30.6,17.5
			c6.8,0,28.8-1.3,28.8-18.5V75c0-10.2-5.6-15-22.2-19l-15.2-3.7c-14.9-3.7-24.8-8.4-24.8-20c0-15.7,17.8-21.3,33-21.3
			c16,0,25.4,5.7,30.8,18.3l0.6,1.5l-4.8,1.8l-0.6-1.4c-3.1-7.4-8.6-15-26-15c-12.8,0-27.7,4.2-27.7,16c0,7.4,4.8,10.9,20.7,14.7
			l15.2,3.7c16.2,3.9,26.3,9.3,26.3,24.2v0.9C72.1,97.9,46.1,99.6,38.1,99.6z"/>
	</g>
	<g>
		<path class="st0" d="M159.9,98.6c-2,0-4.1-1.5-5-3.5l-20.5-50c0.1-0.3,0-0.2-0.1,0l-20.3,50c-1,2.2-2.8,3.6-4.9,3.6
			c-1.9,0-4.1-1.7-4.9-3.7l-33-82.9h5.5l32.4,81c0,0.1,0.1,0.1,0.1,0.2c0-0.1,0.1-0.1,0.1-0.2l20.3-49.8c0.8-2,2.8-3.6,4.8-3.6
			c2.1,0,4,1.4,4.9,3.6l20.4,49.9c0,0.1,0.1,0.1,0.1,0.2c0-0.1,0.1-0.1,0.1-0.2l32.3-81h5.6l-33.1,82.9
			C163.9,97,161.8,98.6,159.9,98.6z"/>
	</g>
	<g>
		<path class="st0" d="M265.4,98.5h-66.1V17.9c0-3.3,2.5-5.8,5.7-5.8h59.6v5.3H205c-0.4,0-0.4,0.5-0.4,0.6v35h60.9v5.3h-60.9v35.2
			h60.9v5H265.4z"/>
	</g>
	<g>
		<path class="st0" d="M335.5,98.5h-66.1V17.9c0-3.3,2.5-5.8,5.7-5.8h59.6v5.3H275c-0.4,0-0.4,0.5-0.4,0.6v35h60.9v5.3h-60.9v35.2
			h60.9V98.5z"/>
	</g>
	<g>
		<polygon class="st0" points="374.9,98.5 369.7,98.5 369.7,17.3 334.7,17.3 334.7,12.1 409.9,12.1 409.9,17.3 374.9,17.3 		"/>
	</g>
	<g>
		<path class="st0" d="M480.9,98.5h-59.6c-3.2,0-5.8-2.6-5.8-5.8V12.1h5.3v80.6c0,0.3,0.2,0.6,0.6,0.6H481v5.2H480.9z"/>
	</g>
	<g>
		<path class="st0" d="M548.6,98.5h-66.1V17.9c0-3.3,2.5-5.8,5.7-5.8h59.6v5.3h-59.6c-0.4,0-0.4,0.5-0.4,0.6v35h60.9v5.3h-60.9v35.2
			h60.9v5H548.6z"/>
	</g>
	<g>
		<path class="st0" d="M594.5,99.6c-24.5,0-44.3-19.8-44.3-44.2c0-24.5,19.9-44.3,44.3-44.3c13.8,0,27,6.7,35.4,17.9l1,1.3l-4.2,3
			l-0.9-1.2c-7.3-9.8-19-15.7-31.2-15.7c-21.6,0-39.1,17.5-39.1,39.1c0,21.5,17.5,39,39.1,39c21.5,0,39-17.5,39-39
			c0-1.2-0.4-1.2-0.8-1.2h-36.2V49h36.2c3.8,0,6.1,2.3,6.1,6.4C638.8,79.7,618.9,99.6,594.5,99.6z"/>
	</g>
	<g>
		<path class="st0" d="M676.2,99.6c-21.4,0-33.2-7.1-35.8-21.7l-0.3-1.5l5.2-1.2l0.3,1.6c2.1,11.8,12.1,17.5,30.6,17.5
			c6.8,0,28.8-1.3,28.8-18.5v-0.9c0-10.2-5.6-15-22.2-19l-15.2-3.7c-14.8-3.5-24.7-8.2-24.7-19.8c0-15.7,17.8-21.3,33-21.3
			c16,0,25.4,5.7,30.7,18.3l0.6,1.5l-4.8,1.8l-0.6-1.4c-3.1-7.4-8.6-15-26-15c-12.8,0-27.7,4.2-27.7,16c0,7.4,4.8,10.9,20.7,14.7
			l15.2,3.7c16.2,3.9,26.3,9.3,26.3,24.2v0.9C710.3,97.9,684.2,99.6,676.2,99.6z"/>
	</g>
	<path class="st0" d="M897.9,111.2L836,47.3l14.8-39.6c0.2-0.6,0-1.2-0.5-1.5s-1.1-0.3-1.5,0.2l-27,26.3L796.1,6.3
		c-0.4-0.4-1-0.5-1.5-0.2s-0.7,0.9-0.5,1.5l13.3,39.1L744,108.4c-0.4,0.4-0.5,1-0.2,1.5c0.3,0.4,0.6,0.6,1.1,0.6
		c0.1,0,0.3,0,0.4-0.1l75.2-26.5c0,0,0.1,0,0.1,0.1l76,29.3c0.2,0.1,0.3,0.1,0.5,0.1c0.4,0,0.8-0.2,1-0.5
		C898.4,112.2,898.3,111.6,897.9,111.2z M846.5,12L834,45.4l-10.6-10.9L846.5,12z M798.2,11.9L820,34.4l-10.6,10.3L798.2,11.9z
		 M749.7,106.1l58.6-56.9l11.1,32.4L749.7,106.1z M810.2,47.3l11.4-11.1L833,48l-11.8,31.7L810.2,47.3z M822.9,82.2L835,49.9
		l57.2,59L822.9,82.2z"/>
</g>
<g>
	<g>
		<path class="st0" d="M707.2,8h-2.7V7h6.5v1h-2.7v7.8h-1.1V8z"/>
		<path class="st0" d="M719.4,12c-0.1-1.2-0.1-2.7-0.1-3.8l0,0c-0.3,1-0.7,2.1-1.1,3.3l-1.5,4.3h-0.9l-1.4-4.2
			c-0.4-1.2-0.8-2.4-1-3.4l0,0c0,1.1-0.1,2.6-0.2,3.9l-0.2,3.8h-1.1l0.6-8.8h1.4l1.5,4.2c0.4,1.1,0.7,2,0.9,3l0,0
			c0.2-0.9,0.5-1.8,0.9-3l1.6-4.2h1.4l0.5,8.8h-1.1L719.4,12z"/>
	</g>
</g>
</svg>
