<?xml version="1.0" encoding="utf-8"?>
<!-- Generator: Adobe Illustrator 26.0.1, SVG Export Plug-In . SVG Version: 6.00 Build 0)  -->
<svg version="1.1" id="Layer_1" xmlns="http://www.w3.org/2000/svg" xmlns:xlink="http://www.w3.org/1999/xlink" x="0px" y="0px"
	 viewBox="0 0 172.3 131.6" style="enable-background:new 0 0 172.3 131.6;" xml:space="preserve">
<style type="text/css">
	.st0{fill:#5AC2B2;}
</style>
<g>
	<path class="st0" d="M77.5,30.9c-19.4,7-28.3,18.3-28.3,34.9c17.1-0.8,29.5,14.8,29.9,28.3c0.8,16.7-10.5,31.5-33,31.5
		c-26.4,0-32.6-25.2-32.6-37.7c0-33.4,14.8-66.8,51.3-78.4L77.5,30.9z M158.1,30.9c-19.4,7-28.3,18.3-28.3,34.9
		c17.1-0.8,29.5,14.8,29.9,28.3c0.8,16.7-10.5,31.5-33,31.5C100.2,125.7,94,100.5,94,88c0-33.4,14.8-66.8,51.3-78.4L158.1,30.9z"/>
</g>
</svg>
